:version 1.10
:name ASF
:units
  mass 1
  length 1
  angle deg
:documentation
  ASF file generated by Kaydara
:root
  axis xyz
  order  tx ty tz rx ry rz
  position 0 0 0
  orientation 0 0 0
:bonedata
  begin
    id 1
    name RightUpLegDummy
    direction -0.65628 -0.754516 0.00165102
    length 4.76918
    axis 0 0 0 xyz
  end
  begin
    id 2
    name RightUpLeg
    direction -0.145584 -0.923362 0.355256
    length 17.9961
    axis -24.7611 -13.1006 1.78531 xyz
    dof rx ry rz
  end
  begin
    id 3
    name RightLeg
    direction 0.263379 0.172355 -0.949171
    length 13.3386
    axis 89.6202 -21.1929 12.3855 xyz
    dof rx ry rz
  end
  begin
    id 4
    name RightFoot
    direction 0.224283 -0.968777 -0.105675
    length 5.86697
    axis 56.995 -39.6905 17.3365 xyz
    dof rx ry rz
  end
  begin
    id 5
    name RightToes
    direction -0.0806345 -0.9037 0.420506
    length 4.75197
    axis 146.825 -39.7828 17.6019 xyz
    dof rx ry rz
  end
  begin
    id 6
    name SpineDummy
    direction -3.39852e-014 1 9.33296e-014
    length 8.13779
    axis 0 0 0 xyz
  end
  begin
    id 7
    name Spine
    direction -0.156609 0.733703 0.661176
    length 7.14978
    axis 41.2365 5.68757 17.0844 xyz
    dof rx ry rz
  end
  begin
    id 8
    name Spine1
    direction 0 0 0
    length 0
    axis 42.8809 47.8308 -3.36039 xyz
    dof rx ry rz
  end
  begin
    id 9
    name HEadDummy
    direction 0.546431 0.701947 0.456819
    length 3.55512
    axis 42.8809 47.8308 -3.36039 xyz
  end
  begin
    id 10
    name HEad
    direction 0.23444 0.828559 0.508457
    length 7.35827
    axis 51.1864 49.2662 27.4903 xyz
    dof rx ry rz
  end
  begin
    id 11
    name LeftShoulder1Dummy
    direction 0.431183 0.475873 -0.766568
    length 2.49352
    axis 42.8809 47.8308 -3.36039 xyz
  end
  begin
    id 12
    name LeftShoulder1
    direction 0.268187 -0.383402 -0.883786
    length 4.48604
    axis -119.517 0.106469 35.1736 xyz
    dof rx ry rz
  end
  begin
    id 13
    name LeftArm
    direction 0.380567 -0.703221 -0.600541
    length 10.1142
    axis -5.41825 36.2925 7.8293 xyz
    dof rx ry rz
  end
  begin
    id 14
    name LeftForeArm
    direction 0.541071 -0.732356 -0.413396
    length 9.39839
    axis 4.65387 33.7604 7.81644 xyz
    dof rx ry rz
  end
  begin
    id 15
    name LeftHand
    direction 0.847511 -0.389379 -0.360707
    length 3.66142
    axis 7.65593 21.1436 -24.6758 xyz
    dof rx ry rz
  end
  begin
    id 16
    name RightShoulderDummy
    direction -0.692546 0.541855 0.476208
    length 2.49352
    axis 42.8809 47.8308 -3.36039 xyz
  end
  begin
    id 17
    name RightShoulder
    direction -0.870808 -0.316653 0.376065
    length 4.48602
    axis 141.571 51.133 -100.254 xyz
    dof rx ry rz
  end
  begin
    id 18
    name RightArm
    direction 0.366897 -0.87275 0.322015
    length 10.1142
    axis 92.3258 71.2036 138.917 xyz
    dof rx ry rz
  end
  begin
    id 19
    name RightForeArm
    direction 0.702487 -0.694568 0.155197
    length 9.39835
    axis 153.863 41.5092 -176.604 xyz
    dof rx ry rz
  end
  begin
    id 20
    name RightHand
    direction 0.79502 -0.601276 0.0800636
    length 3.66142
    axis 154.247 4.59222 142.9 xyz
    dof rx ry rz
  end
  begin
    id 21
    name LeftUpLegDummy
    direction 0.65628 -0.754516 0.00165102
    length 4.76919
    axis 0 0 0 xyz
  end
  begin
    id 22
    name LeftUpLeg
    direction -0.1277 -0.689368 0.713067
    length 17.9961
    axis -48.3385 -17.8675 0.791927 xyz
    dof rx ry rz
  end
  begin
    id 23
    name LeftLeg
    direction 0.109849 -0.991246 -0.0732378
    length 13.3386
    axis -2.05791 -7.30784 1.72042 xyz
    dof rx ry rz
  end
  begin
    id 24
    name LeftFoot
    direction 0.0448355 -0.272614 0.961078
    length 5.86697
    axis -18.7733 -7.89606 10.2113 xyz
    dof rx ry rz
  end
  begin
    id 25
    name LeftToes
    direction -0.18506 0.293668 0.937823
    length 4.75197
    axis 71.2267 -7.89606 10.2113 xyz
    dof rx ry rz
  end
:hierarchy
  begin
    root RightUpLegDummy SpineDummy LeftUpLegDummy
    RightUpLegDummy RightUpLeg
    RightUpLeg RightLeg
    RightLeg RightFoot
    RightFoot RightToes
    SpineDummy Spine
    Spine Spine1
    Spine1 HEadDummy LeftShoulder1Dummy RightShoulderDummy
    HEadDummy HEad
    LeftShoulder1Dummy LeftShoulder1
    LeftShoulder1 LeftArm
    LeftArm LeftForeArm
    LeftForeArm LeftHand
    RightShoulderDummy RightShoulder
    RightShoulder RightArm
    RightArm RightForeArm
    RightForeArm RightHand
    LeftUpLegDummy LeftUpLeg
    LeftUpLeg LeftLeg
    LeftLeg LeftFoot
    LeftFoot LeftToes
  end

:SAMPLES-PER-SECOND 30
:FULLY-SPECIFIED
:DEGREES
547
root  -21.0129 15.4292 -24.0582 123.787 31.8431 -117.018
RightUpLeg  -30.6986 -7.58358 -43.2918
RightLeg  -110.302 -15.7034 -0.777213
RightFoot  26.2038 7.10333 -19.9495
RightToes  -1.27222e-014 -6.36111e-015 6.36111e-015
Spine  -17.7907 -10.5192 3.7973
Spine1  5.37185 -15.6872 55.6269
HEad  30.9242 -15.0259 -7.81218
LeftShoulder1  6.36111e-015 -1.33558e-015 6.49777e-015
LeftArm  55.0424 46.6859 46.4506
LeftForeArm  14.9773 -54.5473 -2.66896
LeftHand  19.433 23.5954 28.8164
RightShoulder  -4.77083e-015 -6.36111e-015 -3.18055e-015
RightArm  98.4634 -12.6852 -82.525
RightForeArm  -51.2641 17.2882 -45.9989
RightHand  12.8324 -12.5212 -40.401
LeftUpLeg  24.4072 14.1663 54.9816
LeftLeg  -36.4126 8.48326 -17.0737
LeftFoot  -5.23078 -3.15802 12.9103
LeftToes  1.27222e-014 1.09105e-011 6.96064e-012
548
root  -20.8272 15.3485 -25.345 106.628 34.228 -130.316
RightUpLeg  -24.0561 -5.99658 -46.7616
RightLeg  -110.288 -14.4814 3.51087
RightFoot  27.3358 6.5588 -19.3036
RightToes  -1.27222e-014 -6.36111e-015 6.36111e-015
Spine  -16.1286 -10.3279 1.18249
Spine1  9.07193 -14.6548 56.0362
HEad  32.6257 -16.7786 -9.45161
LeftShoulder1  6.36111e-015 -1.33558e-015 6.49777e-015
LeftArm  63.8086 46.1482 52.7629
LeftForeArm  14.0939 -62.943 0.3056
LeftHand  17.6013 22.4244 26.2046
RightShoulder  -4.77083e-015 -6.36111e-015 -3.18055e-015
RightArm  110.35 -21.3936 -81.8943
RightForeArm  -24.9086 13.5063 -24.9893
RightHand  11.4964 -10.7727 -39.1129
LeftUpLeg  19.5557 8.95203 59.5006
LeftLeg  -45.6379 15.2633 -24.6592
LeftFoot  -7.35805 -7.14887 30.9545
LeftToes  1.27222e-014 1.09105e-011 6.96064e-012
549
root  -20.6416 15.2595 -26.2816 91.5675 33.5574 -143.663
RightUpLeg  -17.4915 1.18371 -49.8785
RightLeg  -109.161 -13.1782 13.3305
RightFoot  28.115 7.5322 -20.6854
RightToes  -1.27222e-014 -6.36111e-015 6.36111e-015
Spine  -14.38 -10.3769 -2.0518
Spine1  11.2529 -13.6311 58.1009
HEad  34.4845 -18.4286 -12.2926
LeftShoulder1  6.36111e-015 -1.33558e-015 6.49777e-015
LeftArm  71.8209 45.4127 58.2932
LeftForeArm  16.0644 -69.7892 1.26631
LeftHand  14.8894 21.3251 20.6935
RightShoulder  -4.77083e-015 -6.36111e-015 -3.18055e-015
RightArm  121.209 -37.7125 -74.0198
RightForeArm  -9.1926 -7.51061 -7.51643
RightHand  10.9369 -10.6822 -37.283
LeftUpLeg  9.16814 11.0567 65.3415
LeftLeg  -42.6217 12.2976 -19.6021
LeftFoot  -4.65874 -3.56491 14.2275
LeftToes  1.27222e-014 1.09105e-011 6.96064e-012
550
root  -20.5304 14.8993 -27.6314 71.1976 33.349 -160.191
RightUpLeg  -7.22862 14.1685 -46.4819
RightLeg  -106.118 -11.4789 21.7802
RightFoot  28.5359 8.14153 -21.5296
RightToes  -1.27222e-014 -6.36111e-015 6.36111e-015
Spine  -8.41713 -8.06171 1.18359
Spine1  13.7046 -12.1531 57.3782
HEad  36.7082 -17.7421 -15.1003
LeftShoulder1  6.36111e-015 -1.33558e-015 6.49777e-015
LeftArm  77.5077 44.0898 61.0671
LeftForeArm  24.655 -72.057 -4.94378
LeftHand  12.6487 19.3276 17.4841
RightShoulder  -4.77083e-015 -6.36111e-015 -3.18055e-015
RightArm  124.508 -33.1948 -83.3131
RightForeArm  1.96961 -4.73777 7.73055
RightHand  10.5432 -10.1237 -36.9064
LeftUpLeg  -2.4718 16.5628 69.8758
LeftLeg  -36.286 9.96379 -13.9502
LeftFoot  -9.24349 2.79174 -13.0344
LeftToes  1.27222e-014 1.09105e-011 6.96064e-012
551
root  -20.5968 14.5376 -28.6189 63.9553 20.8418 -173.699
RightUpLeg  -9.01728 13.2878 -48.6119
RightLeg  -100.138 -11.4834 21.0843
RightFoot  27.8058 7.53048 -20.6611
RightToes  -1.27222e-014 -6.36111e-015 6.36111e-015
Spine  -5.98754 -10.7039 -5.64103
Spine1  15.8314 -11.4154 50.9926
HEad  36.5155 -18.3177 -14.4102
LeftShoulder1  6.36111e-015 -1.33558e-015 6.49777e-015
LeftArm  76.1884 43.1697 53.9504
LeftForeArm  31.0703 -63.6899 -12.0801
LeftHand  12.8914 18.6778 19.4492
RightShoulder  -4.77083e-015 -6.36111e-015 -3.18055e-015
RightArm  129.61 -28.5794 -93.0635
RightForeArm  6.16999 0.630236 3.97445
RightHand  12.8654 -10.4395 -44.5294
LeftUpLeg  -8.00368 17.3528 65.0536
LeftLeg  -37.9421 10.5643 -18.0947
LeftFoot  -8.27538 2.54183 -11.3927
LeftToes  1.27222e-014 1.09105e-011 6.96064e-012
552
root  -21.1736 14.2382 -28.955 62.2289 5.3092 174.818
RightUpLeg  -10.3024 5.3002 -49.1777
RightLeg  -97.3657 -12.3445 16.722
RightFoot  26.6385 7.44583 -20.4593
RightToes  -1.27222e-014 -6.36111e-015 6.36111e-015
Spine  -4.15681 -12.138 -11.594
Spine1  19.5499 -8.9432 41.8426
HEad  32.1882 -23.9541 -9.02745
LeftShoulder1  6.36111e-015 -1.33558e-015 6.49777e-015
LeftArm  65.2031 42.2486 27.5574
LeftForeArm  20.5951 -40.3885 -6.86674
LeftHand  13.0922 20.0706 17.5458
RightShoulder  -4.77083e-015 -6.36111e-015 -3.18055e-015
RightArm  131.468 -26.8363 -98.4803
RightForeArm  4.53701 5.61557 -4.56991
RightHand  15.0819 -9.77822 -53.229
LeftUpLeg  -10.922 16.9159 59.3903
LeftLeg  -39.006 4.89453 -14.036
LeftFoot  -7.46468 2.2116 -9.58032
LeftToes  1.27222e-014 1.09105e-011 6.96064e-012
553
root  -21.9029 14.2897 -28.4665 68.3407 -9.87427 162.891
RightUpLeg  -12.6153 -7.22082 -47.1018
RightLeg  -95.7355 -12.5865 13.4286
RightFoot  25.4589 6.11372 -18.4925
RightToes  -1.27222e-014 -6.36111e-015 6.36111e-015
Spine  -6.46185 -13.3016 -16.7739
Spine1  23.6545 -5.71055 31.2799
HEad  26.3157 -31.9866 -2.19018
LeftShoulder1  6.36111e-015 -1.33558e-015 6.49777e-015
LeftArm  53.5944 35.5421 5.06826
LeftForeArm  13.0066 -19.8441 -8.39401
LeftHand  7.38737 16.89 3.25726
RightShoulder  -4.77083e-015 -6.36111e-015 -3.18055e-015
RightArm  126.564 -28.1328 -99.0771
RightForeArm  5.24965 5.10471 -3.5052
RightHand  15.4543 -8.93466 -56.3342
LeftUpLeg  -15.2982 16.4471 55.6636
LeftLeg  -40.7084 3.53094 -11.4613
LeftFoot  -7.02904 2.4363 -10.3924
LeftToes  1.27222e-014 1.09105e-011 6.96064e-012
554
root  -22.6608 14.4262 -27.6763 76.5183 -19.9607 148.533
RightUpLeg  -11.7631 -15.5238 -42.7148
RightLeg  -91.117 -12.9829 6.91437
RightFoot  23.5078 3.77283 -14.8747
RightToes  -1.27222e-014 -6.36111e-015 6.36111e-015
Spine  -6.91127 -13.4468 -17.9885
Spine1  25.8129 -2.90491 21.6789
HEad  24.6426 -38.048 -0.279843
LeftShoulder1  6.36111e-015 -1.33558e-015 6.49777e-015
LeftArm  46.6523 28.5425 -5.72476
LeftForeArm  6.76225 -10.9417 -9.76276
LeftHand  1.27889 7.14437 -9.93494
RightShoulder  -4.77083e-015 -6.36111e-015 -3.18055e-015
RightArm  118.533 -30.5346 -97.4599
RightForeArm  8.43307 1.01946 2.82877
RightHand  15.763 -8.34959 -58.6988
LeftUpLeg  -19.4705 16.8407 54.846
LeftLeg  -42.0415 1.56196 -8.94986
LeftFoot  -5.02666 1.97431 -7.79879
LeftToes  1.27222e-014 1.09105e-011 6.96064e-012
555
root  -23.3234 14.7925 -26.8019 90.9946 -27.9597 131.769
RightUpLeg  -13.7015 -17.4562 -38.5854
RightLeg  -84.0217 -11.9306 -3.11226
RightFoot  18.1515 8.71333 -21.8015
RightToes  -1.27222e-014 -6.36111e-015 6.36111e-015
Spine  -8.63237 -14.7186 -20.9648
Spine1  25.2783 -1.97189 14.3949
HEad  27.873 -41.1567 -4.57371
LeftShoulder1  6.36111e-015 -1.33558e-015 6.49777e-015
LeftArm  45.8274 23.1831 -17.4615
LeftForeArm  -11.0274 -5.38501 -3.62556
LeftHand  -1.05537 0.765145 -15.3282
RightShoulder  -4.77083e-015 -6.36111e-015 -3.18055e-015
RightArm  113.264 -33.1196 -95.3451
RightForeArm  7.76933 -3.67845 3.81039
RightHand  17.6224 -8.02085 -65.1049
LeftUpLeg  -21.6334 17.7752 56.6101
LeftLeg  -44.309 2.51279 -9.95786
LeftFoot  -2.21611 2.42065 -8.71195
LeftToes  1.27222e-014 1.09105e-011 6.96064e-012
556
root  -24.044 15.3059 -25.6132 108.039 -32.1681 114.066
RightUpLeg  -15.6591 -16.903 -35.7411
RightLeg  -80.565 -11.3248 -5.63691
RightFoot  10.9419 18.0034 -39.0751
RightToes  -1.27222e-014 -6.36111e-015 6.36111e-015
Spine  -8.8939 -16.5468 -25.0754
Spine1  23.8508 -2.02438 10.6702
HEad  30.4388 -42.3709 -9.45318
LeftShoulder1  6.36111e-015 -1.33558e-015 6.49777e-015
LeftArm  43.1451 23.461 -11.6168
LeftForeArm  -25.3353 -17.95 -0.726636
LeftHand  -0.734926 0.862994 -11.9012
RightShoulder  -4.77083e-015 -6.36111e-015 -3.18055e-015
RightArm  109.734 -32.5883 -95.6806
RightForeArm  5.30314 -5.8052 1.31169
RightHand  20.4282 -8.35954 -71.905
LeftUpLeg  -21.7808 18.5738 58.1922
LeftLeg  -44.557 4.5454 -12.4666
LeftFoot  -1.77491 3.07278 -10.9149
LeftToes  1.27222e-014 1.09105e-011 6.96064e-012
557
root  -24.392 15.9254 -23.6628 123.957 -31.6033 98.6126
RightUpLeg  -13.7133 -16.9917 -34.9202
RightLeg  -82.5069 -11.1166 -6.55034
RightFoot  9.40549 17.03 -37.6201
RightToes  -1.27222e-014 -6.36111e-015 6.36111e-015
Spine  -7.77756 -17.6179 -27.8097
Spine1  23.0096 -1.97775 11.1539
HEad  30.1932 -43.125 -11.4299
LeftShoulder1  6.36111e-015 -1.33558e-015 6.49777e-015
LeftArm  39.4225 23.0107 -6.14706
LeftForeArm  -42.9741 -30.943 6.69706
LeftHand  0.981883 3.63505 -3.64296
RightShoulder  -4.77083e-015 -6.36111e-015 -3.18055e-015
RightArm  105.713 -31.135 -95.885
RightForeArm  2.58136 -8.46556 -1.14061
RightHand  22.1319 -9.06807 -74.3981
LeftUpLeg  -19.9204 18.2647 57.4755
LeftLeg  -44.2816 4.12099 -12.8401
LeftFoot  -1.69687 2.70244 -9.57047
LeftToes  1.27222e-014 1.09105e-011 6.96064e-012
